<?xml version="1.0" encoding="UTF-8" standalone="no"?>
<!-- Created with Inkscape (http://www.inkscape.org/) -->

<svg
   width="400"
   height="100"
   viewBox="0 0 400 100"
   version="1.1"
   id="svg1"
   inkscape:version="1.4 (86a8ad7, 2024-10-11)"
   sodipodi:docname="wordmark-light.svg"
   xml:space="preserve"
   xmlns:inkscape="http://www.inkscape.org/namespaces/inkscape"
   xmlns:sodipodi="http://sodipodi.sourceforge.net/DTD/sodipodi-0.dtd"
   xmlns="http://www.w3.org/2000/svg"
   xmlns:svg="http://www.w3.org/2000/svg"><path
     style="font-weight:600;font-size:136.898px;font-family:Roboto;-inkscape-font-specification:'Roboto Semi-Bold';letter-spacing:0px;stroke-width:15.6455;fill:#ffffff;fill-opacity:1"
     d="m 381.55127,73.395795 q 0,-2.807478 -0.86898,-5.013354 -0.80214,-2.27272 -3.00801,-4.077528 -2.13903,-1.871652 -6.08287,-3.609615 -3.877,-1.804808 -10.02671,-3.743305 -6.81816,-2.139031 -12.7005,-4.81282 -5.88233,-2.673789 -10.36093,-6.216559 -4.41175,-3.542771 -6.88501,-8.155056 -2.47325,-4.679131 -2.47325,-10.828846 0,-6.016025 2.5401,-10.962535 2.60694,-4.946509 7.35292,-8.4892795 4.74597,-3.6096151 11.16307,-5.5481121 6.48394,-1.93849700293 14.30477,-1.93849700293 10.82884,0 18.71652,3.94383870293 7.95452,3.9438387 12.29943,10.6951559 4.34491,6.751317 4.34491,15.173752 h -18.31546 q 0,-4.545441 -1.93849,-8.021367 -1.87166,-3.475925 -5.74865,-5.481267 -3.81015,-2.005342 -9.62564,-2.005342 -5.61496,0 -9.35826,1.671118 -3.67646,1.671119 -5.54811,4.545442 -1.80481,2.874323 -1.80481,6.417093 0,2.673789 1.27005,4.81282 1.27005,2.072187 3.81015,3.943839 2.5401,1.804808 6.2834,3.409081 3.81015,1.537429 8.8235,3.074857 8.02137,2.40641 14.0374,5.347578 6.08287,2.941168 10.09355,6.684473 4.07753,3.743304 6.08287,8.422435 2.07219,4.679131 2.07219,10.628311 0,6.283404 -2.47326,11.229914 -2.47325,4.946509 -7.08554,8.422435 -4.61228,3.475926 -11.09622,5.280733 -6.4171,1.804808 -14.37162,1.804808 -7.08554,0 -14.03739,-1.871653 -6.88501,-1.938497 -12.49996,-5.748646 -5.61496,-3.876994 -8.9572,-9.75933 -3.34223,-5.94918 -3.34223,-13.903702 h 18.44914 q 0,4.612286 1.47058,7.887677 1.53743,3.208547 4.27807,5.280733 2.80747,2.005342 6.55078,2.941168 3.7433,0.935826 8.08821,0.935826 5.61496,0 9.22457,-1.537428 3.67646,-1.604274 5.48127,-4.411752 1.87165,-2.807478 1.87165,-6.417094 z"
     id="path11"
     inkscape:label="S" /><path
     style="font-weight:600;font-size:136.898px;font-family:Roboto;-inkscape-font-specification:'Roboto Semi-Bold';letter-spacing:0px;stroke-width:16.0752;fill:#ffffff;fill-opacity:1"
     d="M 308.78,0 V 100 H 289.893 V 0 Z"
     id="path10"
     inkscape:label="I" /><path
     id="path9"
     style="font-weight:600;font-size:136.898px;font-family:Roboto;-inkscape-font-specification:'Roboto Semi-Bold';letter-spacing:0px;stroke-width:16.0753;fill:#ffffff;fill-opacity:1"
     d="m 194.268,0 v 99.999999 h 18.88575 v -37.77568 h 18.04493 l 19.52391,37.77568 H 270.983 v -0.96326 l -22.06449,-41.34775 c 2.85381,-1.248646 5.4291,-2.755697 7.71203,-4.531316 3.34247,-2.564095 5.92871,-5.745911 7.7602,-9.546267 1.83149,-3.800356 2.74728,-8.28752 2.74728,-13.461499 0,-6.547603 -1.46446,-12.064779 -4.39484,-16.551946 C 259.81278,9.1107934 255.62142,5.722977 250.17273,3.4336056 244.72405,1.1442343 238.19934,0 230.59865,0 Z m 18.88575,14.90237 h 17.4449 c 3.9835,0 7.28153,0.6649 9.89139,1.992735 2.60988,1.327835 4.55566,3.226743 5.83771,5.699264 1.28204,2.426733 1.9225,5.312772 1.9225,8.655254 0,3.113546 -0.6629,5.883355 -1.99072,8.310089 -1.28205,2.426733 -3.2054,4.327647 -5.76949,5.70127 -2.56408,1.373623 -5.79278,2.058959 -9.68469,2.058959 h -17.6516 z"
     inkscape:label="R" /><path
     id="path6"
     style="font-weight:600;font-size:136.898px;font-family:Roboto;-inkscape-font-specification:'Roboto Semi-Bold';letter-spacing:0px;stroke-width:16.0753;fill:#ffffff;fill-opacity:1"
     d="m 110.556,0 v 99.999999 h 13.11834 5.76951 47.39017 V 85.163853 H 129.44385 V 55.768497 h 40.45273 V 41.277518 H 129.44385 V 14.90237 h 47.18347 V 0 h -47.18347 z"
     inkscape:label="E" /><sodipodi:namedview
     id="namedview1"
     pagecolor="#4f4f4f"
     bordercolor="#ffffff"
     borderopacity="0.09803922"
     inkscape:showpageshadow="false"
     inkscape:pageopacity="0"
     inkscape:pagecheckerboard="1"
     inkscape:deskcolor="#505050"
     inkscape:document-units="px"
     inkscape:zoom="1.044421"
     inkscape:cx="183.83391"
     inkscape:cy="210.16429"
     inkscape:window-width="1920"
     inkscape:window-height="1009"
     inkscape:window-x="1912"
     inkscape:window-y="-8"
     inkscape:window-maximized="1"
     inkscape:current-layer="svg1"
     inkscape:clip-to-page="false"
     labelstyle="default"
     showgrid="false"
     showborder="true" /><defs
     id="defs1"><rect
       x="115.37493"
       y="14.840759"
       width="533.17092"
       height="198.90067"
       id="rect4" /><rect
       x="37.575294"
       y="-85.983109"
       width="44.684135"
       height="38.252327"
       id="rect6" /><inkscape:path-effect
       effect="spiro"
       id="path-effect3"
       is_visible="true"
       lpeversion="1" /><inkscape:path-effect
       effect="spiro"
       id="path-effect2"
       is_visible="true"
       lpeversion="1" /></defs><path
     id="path7"
     style="display:inline;fill:#ffffff;fill-opacity:1;stroke:none;stroke-width:22.6681;stroke-dasharray:none;stroke-opacity:1"
     d="M 50,0 0,100 h 72.570312 l -8,-16 H 25.888672 L 58.943359,17.888672 Z M 61.925781,23.851562 51.193359,45.318359 78.533203,100 H 100 Z"
     inkscape:label="A" /></svg>
