<?xml version="1.0" encoding="UTF-8" standalone="no"?>
<!-- Created with Inkscape (http://www.inkscape.org/) -->

<svg
   width="400"
   height="100"
   viewBox="0 0 400 100"
   version="1.1"
   id="svg1"
   inkscape:version="1.4 (86a8ad7, 2024-10-11)"
   sodipodi:docname="wordmark-dark.svg"
   xml:space="preserve"
   xmlns:inkscape="http://www.inkscape.org/namespaces/inkscape"
   xmlns:sodipodi="http://sodipodi.sourceforge.net/DTD/sodipodi-0.dtd"
   xmlns="http://www.w3.org/2000/svg"
   xmlns:svg="http://www.w3.org/2000/svg"><sodipodi:namedview
     id="namedview1"
     pagecolor="#4f4f4f"
     bordercolor="#ffffff"
     borderopacity="0.09803922"
     inkscape:showpageshadow="false"
     inkscape:pageopacity="0"
     inkscape:pagecheckerboard="1"
     inkscape:deskcolor="#505050"
     inkscape:document-units="px"
     inkscape:zoom="1.4770343"
     inkscape:cx="282.99952"
     inkscape:cy="141.16124"
     inkscape:window-width="1920"
     inkscape:window-height="1009"
     inkscape:window-x="1912"
     inkscape:window-y="-8"
     inkscape:window-maximized="1"
     inkscape:current-layer="svg1"
     inkscape:clip-to-page="false"
     labelstyle="default"
     showgrid="false"
     showborder="true" /><defs
     id="defs1"><rect
       x="115.37493"
       y="14.840759"
       width="533.17092"
       height="198.90067"
       id="rect4" /><rect
       x="37.575294"
       y="-85.983109"
       width="44.684135"
       height="38.252327"
       id="rect6" /><inkscape:path-effect
       effect="spiro"
       id="path-effect3"
       is_visible="true"
       lpeversion="1" /><inkscape:path-effect
       effect="spiro"
       id="path-effect2"
       is_visible="true"
       lpeversion="1" /></defs><path
     style="font-weight:600;font-size:136.898px;font-family:Roboto;-inkscape-font-specification:'Roboto Semi-Bold';letter-spacing:0px;stroke-width:15.6454"
     d="m 381.55095,73.395378 q 0,-2.807462 -0.86897,-5.013326 -0.80214,-2.272707 -3.00799,-4.077505 -2.13902,-1.871641 -6.08284,-3.609594 -3.87698,-1.804798 -10.02665,-3.743284 -6.81812,-2.139019 -12.70043,-4.812792 -5.8823,-2.673774 -10.36087,-6.216524 -4.41173,-3.542751 -6.88497,-8.15501 -2.47324,-4.679104 -2.47324,-10.828784 0,-6.015991 2.54009,-10.962473 2.60692,-4.946481 7.35288,-8.4892311 4.74594,-3.6095945 11.163,-5.5480805 6.48391,-1.93848600293 14.30469,-1.93848600293 10.82878,0 18.71642,3.94381630293 7.95447,3.9438162 12.29936,10.6950953 4.34488,6.751278 4.34488,15.173665 h -18.31536 q 0,-4.545415 -1.93847,-8.021321 -1.87165,-3.475905 -5.74862,-5.481236 -3.81013,-2.00533 -9.62559,-2.00533 -5.61492,0 -9.3582,1.671108 -3.67644,1.67111 -5.54808,4.545416 -1.8048,2.874307 -1.8048,6.417057 0,2.673774 1.27004,4.812792 1.27004,2.072176 3.81013,3.943817 2.54009,1.804798 6.28336,3.409062 3.81013,1.53742 8.82345,3.074839 8.02133,2.406396 14.03732,5.347548 6.08284,2.941151 10.0935,6.684435 4.0775,3.743282 6.08283,8.422387 Q 400,67.312543 400,73.261689 q 0,6.283369 -2.47325,11.229851 -2.47323,4.94648 -7.0855,8.422387 -4.61225,3.475906 -11.09615,5.280703 -6.41707,1.804797 -14.37154,1.804797 -7.0855,0 -14.03731,-1.871642 -6.88497,-1.938486 -12.49989,-5.748613 Q 332.82143,88.5022 329.47921,82.619897 326.137,76.670751 326.137,68.716274 h 18.44904 q 0,4.61226 1.47057,7.887632 1.53742,3.208529 4.27804,5.280703 2.80746,2.005331 6.55075,2.941152 3.74327,0.93582 8.08816,0.93582 5.61493,0 9.22452,-1.537419 3.67644,-1.604265 5.48124,-4.411727 1.87163,-2.807462 1.87163,-6.417057 z"
     id="path47"
     inkscape:label="S" /><path
     style="font-weight:600;font-size:136.898px;font-family:Roboto;-inkscape-font-specification:'Roboto Semi-Bold';letter-spacing:0px;stroke-width:15.6452"
     d="M 308.072,1.3371829 V 98.661513 H 289.69 V 1.3371829 Z"
     id="path46"
     inkscape:label="I" /><path
     id="path45"
     style="font-weight:600;font-size:136.898px;font-family:Roboto;-inkscape-font-specification:'Roboto Semi-Bold';letter-spacing:0px;stroke-width:15.6455"
     d="M 194.303,1.3378906 V 98.664062 h 18.38085 V 61.898438 h 17.5625 l 19.00196,36.765624 h 19.71875 v -0.9375 L 247.49245,57.484375 c 2.77752,-1.215259 5.28396,-2.682014 7.50586,-4.410156 3.25311,-2.495536 5.77021,-5.592275 7.55273,-9.291016 1.78253,-3.698741 2.67383,-8.065926 2.67383,-13.101562 0,-6.372531 -1.4253,-11.742187 -4.27734,-16.109375 C 258.09548,10.205077 254.01617,6.907845 248.71315,4.6796875 243.41014,2.45153 237.05986,1.3378906 229.66237,1.3378906 Z m 18.38085,14.5039064 h 16.97852 c 3.877,0 7.08686,0.647122 9.62695,1.939453 2.5401,1.292331 4.43387,3.140465 5.68164,5.546875 1.24777,2.361847 1.8711,5.170718 1.8711,8.423828 0,3.030295 -0.64517,5.726044 -1.9375,8.087891 -1.24777,2.361846 -3.1197,4.211933 -5.61524,5.548828 -2.49553,1.336895 -5.63791,2.003906 -9.42578,2.003906 h -17.17969 z"
     inkscape:label="R" /><path
     id="path43"
     style="font-weight:600;font-size:136.898px;font-family:Roboto;-inkscape-font-specification:'Roboto Semi-Bold';letter-spacing:0px;stroke-width:15.6455"
     d="M 110.774,1.3378906 V 98.664062 h 12.76758 5.61524 46.12304 V 84.224609 H 129.15682 V 55.615234 h 39.37109 V 41.511719 H 129.15682 V 15.841797 h 45.92187 V 1.3378906 h -45.92187 z"
     inkscape:label="E" /><path
     id="path7"
     style="display:inline;fill:#000000;fill-opacity:1;stroke:none;stroke-width:22.6681;stroke-dasharray:none;stroke-opacity:1"
     d="M 50,0 0,100 h 72.570312 l -8,-16 H 25.888672 L 58.943359,17.888672 Z M 61.925781,23.851562 51.193359,45.318359 78.533203,100 H 100 Z"
     inkscape:label="A" /></svg>
