<?xml version="1.0" encoding="UTF-8" standalone="no"?>
<!-- Created with Inkscape (http://www.inkscape.org/) -->

<svg
   width="400"
   height="100"
   viewBox="0 0 400 100"
   version="1.1"
   id="svg1"
   inkscape:version="1.4 (86a8ad7, 2024-10-11)"
   sodipodi:docname="wordmark-dark.svg"
   xml:space="preserve"
   xmlns:inkscape="http://www.inkscape.org/namespaces/inkscape"
   xmlns:sodipodi="http://sodipodi.sourceforge.net/DTD/sodipodi-0.dtd"
   xmlns="http://www.w3.org/2000/svg"
   xmlns:svg="http://www.w3.org/2000/svg"><sodipodi:namedview
     id="namedview1"
     pagecolor="#4f4f4f"
     bordercolor="#ffffff"
     borderopacity="0.09803922"
     inkscape:showpageshadow="false"
     inkscape:pageopacity="0"
     inkscape:pagecheckerboard="1"
     inkscape:deskcolor="#505050"
     inkscape:document-units="px"
     inkscape:zoom="0.73851717"
     inkscape:cx="90.722332"
     inkscape:cy="46.715231"
     inkscape:window-width="1920"
     inkscape:window-height="1009"
     inkscape:window-x="1912"
     inkscape:window-y="-8"
     inkscape:window-maximized="1"
     inkscape:current-layer="svg1"
     inkscape:clip-to-page="false"
     labelstyle="default"
     showgrid="false"
     showborder="true" /><defs
     id="defs1"><rect
       x="37.575294"
       y="-85.983109"
       width="44.684135"
       height="38.252327"
       id="rect6" /><inkscape:path-effect
       effect="spiro"
       id="path-effect3"
       is_visible="true"
       lpeversion="1" /><inkscape:path-effect
       effect="spiro"
       id="path-effect2"
       is_visible="true"
       lpeversion="1" /></defs><path
     id="path12"
     style="fill:#000000;stroke-width:16.8389"
     d="m 360,0 a 40,30 0 0 0 -40,30 40,27 0 0 0 40,27 24,13 0 0 1 24,13 24,14 0 0 1 -24,14 24,14 0 0 1 -24,-14 h -16 a 40,30 0 0 0 40,30 40,30 0 0 0 40,-30 40,27 0 0 0 -40,-27 24,13 0 0 1 -24,-13 24,14 0 0 1 24,-14 24,14 0 0 1 24,14 h 16 A 40,30 0 0 0 360,0 Z"
     inkscape:label="S" /><path
     style="display:inline;fill:#000000;fill-opacity:1;stroke:none;stroke-width:22.6681;stroke-dasharray:none;stroke-opacity:1"
     d="m 288,0 v 100 h 18 V 0 Z"
     id="path3"
     inkscape:label="I" /><path
     id="rect8"
     style="display:inline;fill:#000000;stroke-width:13.6381"
     d="m 194,0 v 16 32 14 38 h 16 V 62 h 25.89453 l 21.93945,38 H 274 L 250.5332,59.351562 C 261.42404,54.680322 269,44.246892 269,31.5 269,14.10303 254.89697,0 237.5,0 H 210 Z m 16,16 h 27.5 c 8.56041,0 15.5,6.939586 15.5,15.5 0,8.560414 -6.93959,16.5 -15.5,16.5 H 210 Z"
     inkscape:label="R" /><path
     id="path1"
     style="display:inline;fill:#000000;fill-opacity:1;stroke:none;stroke-width:22.6681;stroke-dasharray:none;stroke-opacity:1"
     inkscape:label="E"
     d="m 110,0 v 100 h 70 V 84 H 126 V 57 h 48 V 43 H 126 V 16 h 54 V 0 Z"
     sodipodi:nodetypes="ccccccccccccc" /><path
     id="path7"
     style="display:inline;fill:#000000;fill-opacity:1;stroke:none;stroke-width:22.6681;stroke-dasharray:none;stroke-opacity:1"
     d="M 50,0 0,100 h 72.570312 l -8,-16 H 25.888672 L 58.943359,17.888672 Z M 61.925781,23.851562 51.193359,45.318359 78.533203,100 H 100 Z"
     inkscape:label="A" /></svg>
