<?xml version="1.0" encoding="UTF-8" standalone="no"?>
<!-- Created with Inkscape (http://www.inkscape.org/) -->

<svg
   width="400"
   height="100"
   viewBox="0 0 400 100"
   version="1.1"
   id="svg1"
   inkscape:version="1.4 (86a8ad7, 2024-10-11)"
   sodipodi:docname="wordmark-light.svg"
   xmlns:inkscape="http://www.inkscape.org/namespaces/inkscape"
   xmlns:sodipodi="http://sodipodi.sourceforge.net/DTD/sodipodi-0.dtd"
   xmlns="http://www.w3.org/2000/svg"
   xmlns:svg="http://www.w3.org/2000/svg"><path
     id="path5"
     inkscape:label="AERIS"
     d="M 50,0 0,100 h 72.570312 l -8,-16 H 25.888672 L 58.943359,17.888672 Z m 60.55664,0 v 100 h 13.11719 5.76953 47.39062 V 85.164062 H 129.44336 V 55.767578 h 40.45312 V 41.277344 h -40.45312 v -26.375 h 47.18359 V 0 h -47.18359 z m 83.71094,0 V 100 H 213.1543 V 62.224609 h 18.04492 L 250.72266,100 h 20.25976 V 99.037109 L 248.91797,57.689453 c 2.85381,-1.248646 5.42996,-2.755631 7.71289,-4.53125 3.34247,-2.564095 5.92827,-5.746519 7.75976,-9.546875 1.83149,-3.800356 2.74805,-8.286958 2.74805,-13.460937 0,-6.547603 -1.46415,-12.065568 -4.39453,-16.552735 C 259.81374,9.1104886 255.62057,5.7229652 250.17188,3.4335938 244.7232,1.1442225 238.2003,0 230.59961,0 Z m 95.625,0 V 100 H 308.7793 V 0 Z m 74.61328,0 c -5.21389,0 -9.98206,0.64712179 -14.30469,1.9394531 -4.27806,1.2923314 -8.00008,3.140465 -11.16406,5.546875 -3.16399,2.361847 -5.6136,5.1925619 -7.35156,8.4902339 -1.6934,3.297674 -2.54102,6.952208 -2.54102,10.962891 0,4.09981 0.82578,7.708704 2.47461,10.828125 1.64884,3.074857 3.9436,5.79245 6.88477,8.154297 2.98573,2.361847 6.43782,4.434271 10.35937,6.216797 3.92156,1.782526 8.15573,3.386479 12.70117,4.8125 4.09981,1.292331 7.44268,2.540935 10.02735,3.74414 2.62922,1.158643 4.65601,2.361607 6.08203,3.609376 1.47058,1.203205 2.47305,2.562978 3.00781,4.078124 0.57932,1.470584 0.86914,3.14202 0.86914,5.013672 0,2.406411 -0.62333,4.544364 -1.87109,6.416016 -1.20321,1.871652 -3.0295,3.342593 -5.48047,4.412109 -2.40641,1.024952 -5.4813,1.53711 -9.22461,1.53711 -2.89661,0 -5.59431,-0.311663 -8.08984,-0.935547 -2.49554,-0.623884 -4.67914,-1.604512 -6.55079,-2.941406 -1.82709,-1.381458 -3.25239,-3.142219 -4.27734,-5.28125 -0.98039,-2.183594 -1.4707,-4.811862 -1.4707,-7.886719 h -18.44922 c 0,5.303015 1.11364,9.938177 3.3418,13.904297 2.22816,3.921557 5.21372,7.17315 8.95703,9.757812 3.7433,2.5401 7.90999,4.457669 12.5,5.75 4.63456,1.247769 9.31537,1.871094 14.03906,1.871094 5.30301,0 10.09303,-0.601482 14.37109,-1.804688 4.32263,-1.203204 8.02085,-2.963966 11.09571,-5.28125 3.07486,-2.317284 5.4371,-5.124202 7.08593,-8.421874 C 399.17618,81.194514 400,77.450655 400,73.261719 c 0,-3.96612 -0.69081,-7.507533 -2.07227,-10.626953 -1.33689,-3.119421 -3.36367,-5.928292 -6.08203,-8.423828 -2.67378,-2.495537 -6.0385,-4.722816 -10.09375,-6.683594 -4.01068,-1.960779 -8.68953,-3.743383 -14.03711,-5.347656 -3.34223,-1.024953 -6.28412,-2.05122 -8.82422,-3.076172 -2.49553,-1.069516 -4.5898,-2.204998 -6.2832,-3.408204 -1.6934,-1.247768 -2.96384,-2.561901 -3.81054,-3.943359 -0.84671,-1.426021 -1.26954,-3.029974 -1.26954,-4.8125 0,-2.361847 0.60148,-4.501753 1.80469,-6.417969 1.24777,-1.916215 3.09786,-3.430842 5.54883,-4.544922 2.49553,-1.114078 5.61411,-1.671874 9.35742,-1.671874 3.87699,-1e-6 7.0849,0.668964 9.625,2.005859 2.58466,1.336895 4.50223,3.163185 5.75,5.480469 1.29233,2.317284 1.9375,4.99119 1.9375,8.021484 h 18.31641 c 0,-5.614957 -1.4491,-10.67295 -4.34571,-15.173828 C 392.62488,10.137794 388.52567,6.5725852 383.22266,3.9433594 377.9642,1.3141336 371.72509,0 364.50586,0 Z M 213.1543,14.902344 h 17.44531 c 3.9835,0 7.28076,0.664352 9.89062,1.992187 2.60988,1.327835 4.55584,3.226698 5.83789,5.699219 1.28204,2.426733 1.92188,5.313768 1.92188,8.65625 0,3.113546 -0.66241,5.883813 -1.99023,8.310547 -1.28205,2.426733 -3.20545,4.327549 -5.76954,5.701172 -2.56408,1.373623 -5.79363,2.058593 -9.68554,2.058593 H 213.1543 Z M 61.925781,23.851562 51.193359,45.318359 78.533203,100 H 100 Z"
     style="fill:#ffffff;fill-opacity:1" /><sodipodi:namedview
     id="namedview1"
     pagecolor="#4f4f4f"
     bordercolor="#ffffff"
     borderopacity="0.09803922"
     inkscape:showpageshadow="false"
     inkscape:pageopacity="0"
     inkscape:pagecheckerboard="1"
     inkscape:deskcolor="#505050"
     inkscape:document-units="px"
     inkscape:zoom="1.4770343"
     inkscape:cx="143.53086"
     inkscape:cy="92.414915"
     inkscape:window-width="1920"
     inkscape:window-height="1009"
     inkscape:window-x="1912"
     inkscape:window-y="-8"
     inkscape:window-maximized="1"
     inkscape:current-layer="svg1"
     inkscape:clip-to-page="false"
     labelstyle="default"
     showgrid="false"
     showborder="true" /><defs
     id="defs1"><rect
       x="115.37493"
       y="14.840759"
       width="533.17092"
       height="198.90067"
       id="rect4" /><rect
       x="37.575294"
       y="-85.983109"
       width="44.684135"
       height="38.252327"
       id="rect6" /><inkscape:path-effect
       effect="spiro"
       id="path-effect3"
       is_visible="true"
       lpeversion="1" /><inkscape:path-effect
       effect="spiro"
       id="path-effect2"
       is_visible="true"
       lpeversion="1" /></defs></svg>
